inDegrees=yes
name=ik_S47_A01_T01
DataType=double
version=3
OpenSimVersion=4.3-2021-08-27-4bc7ad9
endheader
time	pelvis_tilt	pelvis_list	pelvis_rotation	pelvis_tx	pelvis_ty	pelvis_tz	hip_flexion_r	hip_adduction_r	hip_rotation_r	knee_angle_r	knee_angle_r_beta	ankle_angle_r	subtalar_angle_r	mtp_angle_r	hip_flexion_l	hip_adduction_l	hip_rotation_l	knee_angle_l	knee_angle_l_beta	ankle_angle_l	subtalar_angle_l	mtp_angle_l	lumbar_extension	lumbar_bending	lumbar_rotation	arm_flex_r	arm_add_r	arm_rot_r	elbow_flex_r	pro_sup_r	wrist_flex_r	wrist_dev_r	arm_flex_l	arm_add_l	arm_rot_l	elbow_flex_l	pro_sup_l	wrist_flex_l	wrist_dev_l
26.75999999999952	0.3356865905490375	1.544270573242738	88.35344164057061	0	0.9399999999999999	0	9.680279410077127	-4.458852017823783	-10.88789029645024	12.86114444016565	0.2244693160554535	0	0	0	5.715772964336749	-2.051552318829286	-1.538103668489705	10.17687379048707	0.1776199552039149	0	0	0	0	0	0	41.11352449213078	-41.11352449213078	4.929053767165974	84.03929856387566	85.07094650433797	0	0	41.11352449213078	-41.11352449213078	4.929053767165974	84.03929856387566	85.07094650432424	0	0
26.77999999999952	0.1024420376752076	1.498353169459196	88.60055579140493	0	0.9399999999999999	0	8.892348572711755	-4.743453210811873	-12.30720660070229	11.94148603714978	0.2084182489291935	0	0	0	5.257216510588398	-1.964446771817036	-1.008595939743677	9.09650437826531	0.1587639518228094	0	0	0	0	0	0	41.11443476836509	-41.11443476836509	4.929087248614937	84.03975199162372	85.07091302289042	0	0	41.11443476836509	-41.11443476836509	4.929087248614937	84.03975199162372	85.07091302287672	0	0
26.79999999999952	0.04670011035765078	1.450132285554284	88.65410886718296	0	0.9399999999999999	0	7.980189925616727	-4.986047279004058	-13.97845223759428	11.2698208195616	0.1966954794111557	0	0	0	4.83992487615635	-2.159761457078449	-1.032469517057055	8.252689998885641	0.1440366126269616	0	0	0	0	0	0	41.11561502600757	-41.11561502600757	4.929130562855041	84.04033858098562	85.07086970865217	0	0	41.11561502600757	-41.11561502600757	4.929130562855041	84.04033858098562	85.07086970863851	0	0
26.81999999999952	-0.05441407557993384	1.301690692684157	88.54162705115588	0	0.9399999999999999	0	7.565464205459107	-4.946796973095043	-14.59533217746359	10.72329284282609	0.187156766762858	0	0	0	4.54121548965108	-2.318629184599978	-1.392467693816662	7.498108350922713	0.1308666783948838	0	0	0	0	0	0	41.11630247836583	-41.11630247836583	4.929155773587265	84.0406800009164	85.070844497921	0	0	41.11630247836583	-41.11630247836583	4.929155773587265	84.0406800009164	85.07084449790739	0	0
26.83999999999952	-0.1782002879762235	1.055853070552635	88.35052256602783	0	0.9399999999999999	0	7.499198597783854	-5.002845550368657	-14.65291943721243	10.39173387021402	0.1813699710262477	0	0	0	4.53804697671676	-2.407599148756967	-1.752683958336156	7.158365757247838	0.1249370515259919	0	0	0	0	0	0	41.1168815785736	-41.1168815785736	4.92917696795891	84.04096702853067	85.07082330355026	0	0	41.1168815785736	-41.1168815785736	4.92917696795891	84.04096702853067	85.07082330353666	0	0
26.85999999999952	-0.3715759254496221	0.667581464655804	88.06626532543874	0	0.9399999999999999	0	7.68343299784526	-5.124630359837905	-14.39601352128203	10.2184645067267	0.1783458501405591	0	0	0	4.872959697971104	-2.31098267997552	-1.86810938144731	7.10172550223429	0.1239484925868363	0	0	0	0	0	0	41.11712832426831	-41.11712832426831	4.929185955644934	84.04108874529717	85.07081431586465	0	0	41.11712832426831	-41.11712832426831	4.929185955644934	84.04108874529717	85.07081431585105	0	0
26.87999999999952	-0.3606588418114711	0.6752262996226275	88.08150919609642	0	0.9399999999999999	0	7.638811020668776	-4.852560151497413	-14.02270006669428	9.866668537166522	0.1722058521764883	0	0	0	4.918440879857417	-2.310389063958344	-1.405158110494302	7.199293053389919	0.12565136759761	0	0	0	0	0	0	41.11807698761125	-41.11807698761125	4.929220427498946	84.0415555839227	85.07077984401211	0	0	41.11807698761125	-41.11807698761125	4.929220427498946	84.0415555839227	85.07077984399851	0	0
26.89999999999952	-0.5895266538933701	0.4676718311412291	87.83636593095684	0	0.9399999999999999	0	7.689182585980173	-4.838371769152835	-13.51028413135951	9.369980504352933	0.1635370106486375	0	0	0	5.239447162523473	-2.134691710902544	-1.156054648766471	7.395865842576448	0.1290822099887436	0	0	0	0	0	0	41.11888894090086	-41.11888894090086	4.929250187367789	84.04195861103619	85.07075008414452	0	0	41.11888894090086	-41.11888894090086	4.929250187367789	84.04195861103619	85.07075008413092	0	0
26.91999999999951	-0.5965992965426002	0.5309089030645046	87.69044925947196	0	0.9399999999999999	0	7.231206868330723	-4.703238652155783	-13.51596054610234	8.306692787662227	0.1449791390963721	0	0	0	5.300864525614103	-2.11102755734037	-0.8655301353645553	7.396559428255845	0.1290943153424938	0	0	0	0	0	0	41.11976526495026	-41.11976526495026	4.929282351038445	84.04239419210238	85.07071792047525	0	0	41.11976526495026	-41.11976526495026	4.929282351038445	84.04239419210238	85.07071792046165	0	0
26.93999999999951	-0.555157520626776	0.6568107463754724	87.56604149479827	0	0.9399999999999999	0	6.617905978242875	-4.63502540812674	-13.44969446906357	7.904224838412373	0.1379547482482127	0	0	0	5.164990373332757	-2.198153383130847	-0.9624199877109119	7.574540826322007	0.132200676746051	0	0	0	0	0	0	41.12043966971925	-41.12043966971925	4.929307020872352	84.04272828648568	85.07069325064238	0	0	41.12043966971925	-41.12043966971925	4.929307020872352	84.04272828648568	85.07069325062878	0	0
